<?xml version="1.0" encoding="UTF-8" standalone="no"?>
<!-- Created with Inkscape (http://www.inkscape.org/) -->

<svg
   xmlns:dc="http://purl.org/dc/elements/1.1/"
   xmlns:cc="http://creativecommons.org/ns#"
   xmlns:rdf="http://www.w3.org/1999/02/22-rdf-syntax-ns#"
   xmlns:svg="http://www.w3.org/2000/svg"
   xmlns="http://www.w3.org/2000/svg"
   xmlns:sodipodi="http://sodipodi.sourceforge.net/DTD/sodipodi-0.dtd"
   xmlns:inkscape="http://www.inkscape.org/namespaces/inkscape"
   width="744.09448819"
   height="1052.3622047"
   id="svg2"
   version="1.1"
   inkscape:version="0.48.4 r9939"
   sodipodi:docname="marker-icon.svg">
  <defs
     id="defs4">
    <filter
       inkscape:collect="always"
       id="filter4226"
       x="-0.26950155"
       width="1.5390031"
       y="-0.21358148"
       height="1.427163">
      <feGaussianBlur
         inkscape:collect="always"
         stdDeviation="8.4560099"
         id="feGaussianBlur4228" />
    </filter>
    <clipPath
       clipPathUnits="userSpaceOnUse"
       id="clipPath4341">
      <path
         style="color:#000000;fill:#ff0000;fill-opacity:1;fill-rule:nonzero;stroke:none;stroke-width:10;marker:none;visibility:visible;display:inline;overflow:visible;enable-background:accumulate"
         d="M 187.34376,-66.876646 C 162.36433,-27.740251 146.32709,126.35836 147.38433,161.54235 148.03437,183.17554 161.51924,209.13739 174.67692,231.65445 187.8346,254.17151 201.00051,272.31837 202.17139,273.9214 216.87352,294.52722 309.11854,203.15653 312.20713,198.5395 312.20713,198.5395 388.14118,10.816042 385.71453,-66.876646 z"
         id="path4343"
         inkscape:connector-curvature="0"
         sodipodi:nodetypes="csscccc" />
    </clipPath>
  </defs>
  <sodipodi:namedview
     id="base"
     pagecolor="#ffffff"
     bordercolor="#666666"
     borderopacity="1.0"
     inkscape:pageopacity="0"
     inkscape:pageshadow="2"
     inkscape:zoom="5.6"
     inkscape:cx="282.12449"
     inkscape:cy="568.66195"
     inkscape:document-units="px"
     inkscape:current-layer="layer1"
     showgrid="false"
     inkscape:window-width="1920"
     inkscape:window-height="1025"
     inkscape:window-x="-3"
     inkscape:window-y="-3"
     inkscape:window-maximized="1"
     showborder="false" />
  <metadata
     id="metadata7">
    <rdf:RDF>
      <cc:Work
         rdf:about="">
        <dc:format>image/svg+xml</dc:format>
        <dc:type
           rdf:resource="http://purl.org/dc/dcmitype/StillImage" />
        <dc:title />
      </cc:Work>
    </rdf:RDF>
  </metadata>
  <g
     inkscape:label="Layer 1"
     inkscape:groupmode="layer"
     id="layer1">
    <path
       style="fill:#ff0000;fill-opacity:1;stroke:none"
       d="M 278.96875 442.28125 C 269.1389 442.28125 261.125 450.26391 261.125 460.09375 C 261.125 467.73516 268.84019 480.17295 273.90625 487.5 L 275.125 489.25 C 276.80563 491.61981 278.96875 494.40625 278.96875 494.40625 C 278.96875 494.40625 281.13189 491.61981 282.8125 489.25 L 284 487.5 C 289.05395 480.17295 296.78125 467.72306 296.78125 460.09375 C 296.78125 450.26391 288.79858 442.28125 278.96875 442.28125 z M 278.96875 449.15625 C 284.90438 449.15625 289.71875 454.00187 289.71875 459.9375 C 289.71875 465.87313 284.90438 470.6875 278.96875 470.6875 C 273.03312 470.6875 268.1875 465.87313 268.1875 459.9375 C 268.1875 454.00187 273.03312 449.15625 278.96875 449.15625 z "
       id="path3828" />
    <path
       inkscape:transform-center-x="-13.445948"
       inkscape:transform-center-y="-8.9992416"
       sodipodi:nodetypes="ccsssc"
       style="opacity:0.25;fill:#000000;fill-opacity:1;stroke:#000000;stroke-width:6.75137854000000015;stroke-miterlimit:4;stroke-opacity:1;stroke-dasharray:none;filter:url(#filter4226)"
       id="path4209"
       d="M 209.53831,274.11496 C 208.53107,274.91906 207.18612,274.91906 206.79682,274.11496 206.02934,272.53527 188.10665,235.21957 195.56186,215.81655 203.21429,195.90027 225.14232,179.69845 244.44518,179.69845 263.74804,179.69845 273.22562,195.90027 265.57319,215.81655 258.11798,235.21957 211.51786,272.53527 209.53831,274.11496 z"
       inkscape:connector-curvature="0"
       transform="matrix(0.36431194,0,-0.08301513,0.18527843,155.11437,336.31303)" />
    <g
       id="g3989"
       transform="matrix(0.3581495,0,0,0.3581495,152.89028,259.99695)">
      <path
         sodipodi:nodetypes="ccsssc"
         style="fill:#ffffff;fill-opacity:1;stroke:none"
         id="path8"
         d="M 157.06233,355.04683 C 156.01176,356.21937 153.98824,356.21937 152.93767,355.04683 150.86979,352.74334 102.33292,298.32994 102.33292,270.03663 102.33292,240.9949 125.95827,217.36956 155,217.36956 184.04173,217.36956 207.66707,240.9949 207.66707,270.03663 207.66707,298.32994 159.12744,352.74334 157.06233,355.04683 z"
         inkscape:connector-curvature="0" />
      <path
         d="M 152.625,225.84375 C 152.49692,225.84726 152.3779,225.90145 152.25,225.90625 130.21901,226.73346 110.9144,246.59595 110.78125,268.6875 A 5.7302053,5.7302053 0 0 0 110.78125,268.96875 C 111.50327,284.77644 121.72976,299.05052 131.46875,314.21875 131.61475,314.44613 131.65707,314.5049 131.59375,314.40625 A 5.7302053,5.7302053 0 0 0 131.75,314.65625 C 137.86107,323.11792 144.0789,331.52315 150.59375,339.34375 A 5.7302053,5.7302053 0 0 0 159.46875,339.25 C 161.88536,336.21318 164.35464,333.01937 167,329.8125 A 5.7302053,5.7302053 0 0 0 167.21875,329.5625 C 180.31292,311.82587 193.81982,294.30121 198.71875,274.40625 A 5.7302053,5.7302053 0 0 0 198.84375,273.8125 C 200.35772,262.70124 196.29262,251.61935 189.46875,242.9375 182.88478,234.56088 173.54164,228.28522 162.96875,226.5625 A 5.7302053,5.7302053 0 0 0 161.875,226.28125 5.7302053,5.7302053 0 0 0 161.84375,226.28125 5.7302053,5.7302053 0 0 0 161.8125,226.28125 C 158.61603,225.85906 155.6291,225.66596 152.8125,225.84375 A 5.7302053,5.7302053 0 0 0 152.625,225.875 L 152.625,225.84375 z"
         id="path3987"
         style="fill:#e81313;fill-opacity:1;stroke:none"
         inkscape:original="M 152.78125 231.5625 C 134.18676 232.0724 116.61235 250.07771 116.5 268.71875 C 117.10755 282.02018 126.49561 295.88412 136.28125 311.125 C 136.32277 311.18966 136.36472 311.24779 136.40625 311.3125 C 142.49242 319.7397 148.63195 328.04312 155 335.6875 C 157.37406 332.70415 159.86883 329.45957 162.59375 326.15625 C 175.71321 308.38536 188.67031 291.24904 193.15625 273.03125 C 195.66391 254.62711 179.51448 234.35071 161.09375 231.96875 A 12.144072 12.144072 0 0 1 161.0625 231.96875 C 158.10586 231.57824 155.45875 231.41913 153.1875 231.5625 A 12.144072 12.144072 0 0 1 152.78125 231.5625 z "
         inkscape:radius="5.7296324"
         sodipodi:type="inkscape:offset" />
    </g>
    <path
       transform="matrix(0.36431194,0,-0.08301513,0.18527843,-26.671345,336.31303)"
       inkscape:connector-curvature="0"
       d="M 209.53831,274.11496 C 208.53107,274.91906 207.18612,274.91906 206.79682,274.11496 206.02934,272.53527 188.10665,235.21957 195.56186,215.81655 203.21429,195.90027 225.14232,179.69845 244.44518,179.69845 263.74804,179.69845 273.22562,195.90027 265.57319,215.81655 258.11798,235.21957 211.51786,272.53527 209.53831,274.11496 z"
       id="path4445"
       style="opacity:0.25;fill:#000000;fill-opacity:1;stroke:#000000;stroke-width:6.75137854;stroke-miterlimit:4;stroke-opacity:1;stroke-dasharray:none;filter:url(#filter4226)"
       sodipodi:nodetypes="ccsssc"
       inkscape:transform-center-y="-8.9992416"
       inkscape:transform-center-x="-13.445948"
       inkscape:export-filename="/home/bram/Projects/Workspace/idea/com.beligum.thomasmore.mobielegidsen/src/main/resources/assets/images/app/markers/red/marker-shadow.png"
       inkscape:export-xdpi="89.672821"
       inkscape:export-ydpi="89.672821" />
    <g
       transform="matrix(0.3581495,0,0,0.3581495,-180.92339,259.99695)"
       id="g4447"
       inkscape:export-filename="/home/bram/Projects/Workspace/idea/com.beligum.thomasmore.mobielegidsen/src/main/resources/assets/images/app/markers/red/marker-icon.png"
       inkscape:export-xdpi="90.681999"
       inkscape:export-ydpi="90.681999">
      <path
         inkscape:connector-curvature="0"
         d="M 157.06233,355.04683 C 156.01176,356.21937 153.98824,356.21937 152.93767,355.04683 150.86979,352.74334 102.33292,298.32994 102.33292,270.03663 102.33292,240.9949 125.95827,217.36956 155,217.36956 184.04173,217.36956 207.66707,240.9949 207.66707,270.03663 207.66707,298.32994 159.12744,352.74334 157.06233,355.04683 z"
         id="path4449"
         style="fill:#ffffff;fill-opacity:1;stroke:none"
         sodipodi:nodetypes="ccsssc" />
      <path
         sodipodi:type="inkscape:offset"
         inkscape:radius="5.7296324"
         inkscape:original="M 152.78125 231.5625 C 134.18676 232.0724 116.61235 250.07771 116.5 268.71875 C 117.10755 282.02018 126.49561 295.88412 136.28125 311.125 C 136.32277 311.18966 136.36472 311.24779 136.40625 311.3125 C 142.49242 319.7397 148.63195 328.04312 155 335.6875 C 157.37406 332.70415 159.86883 329.45957 162.59375 326.15625 C 175.71321 308.38536 188.67031 291.24904 193.15625 273.03125 C 195.66391 254.62711 179.51448 234.35071 161.09375 231.96875 A 12.144072 12.144072 0 0 1 161.0625 231.96875 C 158.10586 231.57824 155.45875 231.41913 153.1875 231.5625 A 12.144072 12.144072 0 0 1 152.78125 231.5625 z "
         style="fill:#e81313;fill-opacity:1;stroke:none"
         id="path4451"
         d="M 152.625,225.84375 C 152.49692,225.84726 152.3779,225.90145 152.25,225.90625 130.21901,226.73346 110.9144,246.59595 110.78125,268.6875 A 5.7302053,5.7302053 0 0 0 110.78125,268.96875 C 111.50327,284.77644 121.72976,299.05052 131.46875,314.21875 131.61475,314.44613 131.65707,314.5049 131.59375,314.40625 A 5.7302053,5.7302053 0 0 0 131.75,314.65625 C 137.86107,323.11792 144.0789,331.52315 150.59375,339.34375 A 5.7302053,5.7302053 0 0 0 159.46875,339.25 C 161.88536,336.21318 164.35464,333.01937 167,329.8125 A 5.7302053,5.7302053 0 0 0 167.21875,329.5625 C 180.31292,311.82587 193.81982,294.30121 198.71875,274.40625 A 5.7302053,5.7302053 0 0 0 198.84375,273.8125 C 200.35772,262.70124 196.29262,251.61935 189.46875,242.9375 182.88478,234.56088 173.54164,228.28522 162.96875,226.5625 A 5.7302053,5.7302053 0 0 0 161.875,226.28125 5.7302053,5.7302053 0 0 0 161.84375,226.28125 5.7302053,5.7302053 0 0 0 161.8125,226.28125 C 158.61603,225.85906 155.6291,225.66596 152.8125,225.84375 A 5.7302053,5.7302053 0 0 0 152.625,225.875 L 152.625,225.84375 z" />
    </g>
    <path
       id="path6"
       d="M 219.87193,459.93167 C 219.87193,453.79904 214.88685,448.81396 208.75422,448.81396 202.62158,448.81396 197.63651,453.79904 197.63651,459.93167 197.63651,466.0643 202.62158,471.04938 208.75422,471.04938 214.88685,471.04938 219.87193,466.0643 219.87193,459.93167 z M 199.66015,459.93167 C 199.66015,454.90957 203.74446,450.8376 208.75422,450.8376 213.77631,450.8376 217.84829,454.92191 217.84829,459.93167 217.84829,464.95377 213.76398,469.03808 208.75422,469.03808 203.73212,469.02574 199.66015,464.94143 199.66015,459.93167 z"
       inkscape:connector-curvature="0" />
    <path
       style="fill:#000000;fill-opacity:1"
       id="path8-3"
       d="M 213.89971,487.90487 C 219.05754,480.42725 226.95469,467.71777 226.95469,459.93167 226.95469,449.89982 218.78607,441.7312 208.75422,441.7312 198.72236,441.7312 190.55374,449.89982 190.55374,459.93167 190.55374,467.73011 198.43856,480.42725 203.60873,487.90487 198.77172,489.22518 195.61286,492.28532 195.61286,495.81437 195.61286,500.63903 201.38765,504.40252 208.75422,504.40252 216.12078,504.40252 221.89558,500.62669 221.89558,495.81437 221.89558,492.28532 218.73672,489.22518 213.89971,487.90487 z M 208.75422,443.75484 C 217.67554,443.75484 224.93105,451.01035 224.93105,459.93167 224.93105,469.2355 212.12285,487.09048 208.75422,491.619 205.38559,487.09048 192.57739,469.2355 192.57739,459.93167 192.57739,451.01035 199.8329,443.75484 208.75422,443.75484 z M 208.75422,502.39121 C 202.7203,502.39121 197.63651,499.38042 197.63651,495.81437 197.63651,493.11206 200.57326,490.6442 204.855,489.66939 206.57016,492.0879 208.76656,494.93827 208.76656,494.93827 208.76656,494.93827 210.96295,492.0879 212.67812,489.66939 216.95986,490.63186 219.89661,493.09972 219.89661,495.81437 219.87193,499.38042 214.78814,502.39121 208.75422,502.39121 z"
       inkscape:connector-curvature="0" />
    <path
       style="color:#000000;fill:#ffff00;stroke:#ffff00;stroke-width:1.98900000000000010;stroke-linecap:butt;stroke-linejoin:miter;stroke-miterlimit:4;stroke-opacity:1;stroke-dasharray:none;stroke-dashoffset:0;marker:none;visibility:visible;display:inline;overflow:visible;enable-background:accumulate"
       d="M 274.52459,488.89085 C 270.36283,490.06406 267.0768,492.80086 267.0768,495.81761 267.0768,499.92129 272.39969,503.2654 278.96875,503.2654 285.53782,503.2654 290.8607,499.92129 290.8607,495.81761 290.8607,492.8077 287.56299,490.07064 283.41291,488.89085 L 278.96875,494.95942 z"
       id="path3835"
       inkscape:connector-curvature="0"
       sodipodi:nodetypes="csssccc" />
    <path
       sodipodi:nodetypes="csssc"
       inkscape:connector-curvature="0"
       id="path3785"
       d="M 274.88392,488.63393 C 270.43309,489.75593 266.84375,492.63019 266.84375,495.8125 266.84375,499.99661 272.27095,503.40625 278.96875,503.40625 285.66656,503.40625 291.09375,499.99661 291.09375,495.8125 291.09375,492.62289 287.48941,489.71988 283.02233,488.60268"
       style="color:#000000;fill:none;stroke:#000000;stroke-width:2.02800012000000018;stroke-linecap:round;stroke-linejoin:round;stroke-miterlimit:4;stroke-opacity:1;stroke-dasharray:none;stroke-dashoffset:0;marker:none;visibility:visible;display:inline;overflow:visible;enable-background:accumulate" />
    <path
       inkscape:connector-curvature="0"
       d="M 289.82499,459.93167 C 289.82499,453.93834 284.95315,449.0665 278.95982,449.0665 272.96649,449.0665 268.09465,453.93834 268.09465,459.93167 268.09465,465.925 272.96649,470.79684 278.95982,470.79684 284.95315,470.79684 289.82499,465.925 289.82499,459.93167 z"
       id="path3841"
       style="fill:#ffffff;stroke:none"
       sodipodi:nodetypes="sssss" />
    <path
       sodipodi:nodetypes="cssscccccsscss"
       inkscape:connector-curvature="0"
       d="M 284.10532,487.90487 C 289.26314,480.42725 297.1603,467.71777 297.1603,459.93167 297.1603,449.89982 288.99167,441.7312 278.95983,441.7312 268.92797,441.7312 260.75934,449.89982 260.75934,459.93167 260.75934,467.73011 268.64416,480.42725 273.81434,487.90487 L 275.0606,489.66939 C 276.77577,492.0879 278.97217,494.93827 278.97217,494.93827 278.97217,494.93827 281.16856,492.0879 282.88371,489.66939 z M 278.95983,443.75484 C 287.88114,443.75484 295.13664,451.01035 295.13664,459.93167 295.13664,469.2355 282.32846,487.09048 278.95983,491.619 275.5912,487.09048 262.783,469.2355 262.783,459.93167 262.783,451.01035 270.0385,443.75484 278.95983,443.75484 z"
       id="path3781"
       style="fill:#000000;fill-opacity:1" />
    <path
       style="fill:#000000"
       id="path3830"
       d="M 290.07753,459.93167 C 290.07753,453.79904 285.09245,448.81396 278.95982,448.81396 272.82719,448.81396 267.84211,453.79904 267.84211,459.93167 267.84211,466.0643 272.82719,471.04938 278.95982,471.04938 285.09245,471.04938 290.07753,466.0643 290.07753,459.93167 z M 269.86575,459.93167 C 269.86575,454.90957 273.95006,450.8376 278.95982,450.8376 283.98192,450.8376 288.05389,454.92191 288.05389,459.93167 288.05389,464.95377 283.96958,469.03808 278.95982,469.03808 273.93772,469.02574 269.86575,464.94143 269.86575,459.93167 z"
       inkscape:connector-curvature="0" />
  </g>
</svg>
